<?xml version="1.0" encoding="UTF-8"?>
<svg version="1.1" xmlns="http://www.w3.org/2000/svg" width="500" height="500">
<path d="M0 0 C0.72251953 0.23912109 1.44503906 0.47824219 2.18945312 0.72460938 C45.52274846 15.26874387 85.87870007 42.74103453 114 79 C114.78632813 79.969375 115.57265625 80.93875 116.3828125 81.9375 C154.93171374 130.27468024 172.41471235 194.60747493 166.17724609 255.84033203 C161.30323743 297.2269946 147.28526326 336.97015159 123 371 C122.32396729 371.9600293 122.32396729 371.9600293 121.63427734 372.93945312 C113.93842562 383.80733417 105.28704191 393.47482881 96 403 C95.15308594 403.886875 94.30617188 404.77375 93.43359375 405.6875 C88.00520553 411.28097337 82.15876554 416.23248026 76 421 C75.33742188 421.51723633 74.67484375 422.03447266 73.9921875 422.56738281 C22.66749935 462.37161005 -41.54330369 479.98522688 -106.07983398 472.41455078 C-117.21711024 470.97638699 -128.11572492 468.74161508 -139 466 C-139.74330566 465.81743652 -140.48661133 465.63487305 -141.25244141 465.44677734 C-166.52125998 459.11642099 -191.88220286 447.23250941 -213 432 C-213.91652344 431.35546875 -214.83304687 430.7109375 -215.77734375 430.046875 C-234.48042424 416.72125804 -251.79308442 401.06377582 -266 383 C-266.79148437 382.02546875 -267.58296875 381.0509375 -268.3984375 380.046875 C-307.11849884 331.43304405 -324.22036963 267.24501246 -318.17944336 205.73120117 C-316.72520254 192.92556098 -314.28730325 180.4555403 -311 168 C-310.67757324 166.75259033 -310.67757324 166.75259033 -310.34863281 165.47998047 C-297.68175458 117.32122892 -267.39296775 71.55193237 -228 41 C-227.030625 40.21367188 -226.06125 39.42734375 -225.0625 38.6171875 C-204.24607931 22.016092 -180.08856514 9.67519644 -155 1 C-154.30632324 0.75556152 -153.61264648 0.51112305 -152.89794922 0.25927734 C-104.0196409 -16.7867745 -48.96189608 -16.4441562 0 0 Z " fill="#FEFEFE" transform="translate(326,19)"/>
<path d="M0 0 C11.48755915 20.92275042 18.16708664 44.43709696 11.4375 68.3125 C10.68233009 70.23189019 9.86828266 72.12905759 9 74 C8.525625 75.13953125 8.05125 76.2790625 7.5625 77.453125 C3.44304889 86.60305967 -1.97514948 92.98540474 -9 100 C-9.96873047 101.07507813 -9.96873047 101.07507813 -10.95703125 102.171875 C-28.45579839 121.23371285 -56.09061661 130.38526835 -80 138 C-83.39900412 160.67384459 -85.29042234 183.20327296 -85.3125 206.125 C-85.3176059 207.39354324 -85.3176059 207.39354324 -85.32281494 208.68771362 C-85.32841873 211.10716506 -85.31802274 213.52592606 -85.30078125 215.9453125 C-85.30156174 216.65753464 -85.30234222 217.36975677 -85.30314636 218.1035614 C-85.23802646 222.77897524 -84.44056343 226.60052861 -83 231 C-88.91963811 235.83235764 -88.91963811 235.83235764 -93.625 236.5625 C-97.56182694 235.90636218 -99.23843324 234.84278931 -102 232 C-103.08927309 228.73218072 -102.90725612 228.03905572 -102 224.875 C-98.71579386 210.52095218 -107.94824916 196.98201514 -114.125 184.5 C-114.53226318 183.67588623 -114.93952637 182.85177246 -115.35913086 182.00268555 C-117.69417276 177.35848912 -120.20424166 172.94511768 -123.07763672 168.61132812 C-124 167 -124 167 -124 165 C-125.03705078 165.02094727 -126.07410156 165.04189453 -127.14257812 165.06347656 C-131.07130558 165.13708135 -134.99997537 165.18222681 -138.92919922 165.21972656 C-140.61452554 165.23957276 -142.29978561 165.26665893 -143.98486328 165.30175781 C-164.23189007 165.71225209 -182.44125467 162.18209567 -197.5859375 147.6484375 C-207.54718218 136.72008169 -210.18913119 124.50251047 -210.0625 110.125 C-210.05798828 109.15046875 -210.05347656 108.1759375 -210.04882812 107.171875 C-210.03710906 104.78118566 -210.02070219 102.3906256 -210 100 C-183.13729978 99.31148442 -157.92114738 102.4479721 -137 121 C-136.36320312 121.54269531 -135.72640625 122.08539063 -135.0703125 122.64453125 C-125.35542483 131.51746199 -121.07643069 143.77042776 -117.9296875 156.1953125 C-115.17232974 166.94235649 -111.40091055 176.31292295 -106 186 C-105.43466553 187.01610352 -105.43466553 187.01610352 -104.85791016 188.05273438 C-102.6149852 192.06088029 -100.32657122 196.03987877 -98 200 C-91.08174536 177.29007715 -90.11928754 149.47450083 -94.91894531 126.22021484 C-99.74123365 102.03250824 -94.66309685 77.78024965 -81.3125 57.3125 C-65.55518941 34.1963536 -43.48577646 19.5393262 -19 7 C-35.12218215 12.82458078 -49.90511849 22.01604201 -63 33 C-63.90234375 33.75023437 -64.8046875 34.50046875 -65.734375 35.2734375 C-83.71945183 50.80600385 -97.08412862 73.09325712 -99 97 C-99.5618605 109.31514975 -99.34094436 121.73993731 -98 134 C-101.31379812 131.32726401 -102.52337591 127.79793328 -104 123.9375 C-104.26127686 123.2664624 -104.52255371 122.5954248 -104.79174805 121.90405273 C-111.93352752 103.31314285 -114.29779288 82.72539798 -106.7109375 63.78125 C-103.58782712 57.1676045 -99.70261697 51.57146075 -95 46 C-94.57589844 45.43152344 -94.15179688 44.86304688 -93.71484375 44.27734375 C-75.66106149 20.92336853 -42.1367972 9.87232053 -15 2 C-14.23042969 1.773125 -13.46085938 1.54625 -12.66796875 1.3125 C-8.34344109 0.12180787 -4.46434526 -0.06392857 0 0 Z " fill="#8CC640" transform="translate(345,59)"/>
<path d="M0 0 C5.09327543 2.54663771 8.60055695 6.55559768 12.54296875 10.60546875 C16.43392396 14.39744895 20.69141976 17.69885397 25 21 C24.34 21.33 23.68 21.66 23 22 C19.81508998 20.40566043 16.75172551 18.68080367 13.67382812 16.89257812 C10.01153611 14.83865174 7.33580542 13.34108773 3 14 C1.38886087 15.61113913 1.82946275 17.34038036 1.8125 19.5625 C1.8999027 25.68068917 2.24406091 30.79253372 6.1875 35.75 C13.13262356 41.30609885 18.14135553 42.87710722 27 43 C30.35499699 42.59634678 33.58859514 41.83747107 36.875 41.0625 C50.52646811 38.17296748 64.11621721 38.61898 78 39 C78 39.33 78 39.66 78 40 C77.3294458 40.05534912 76.6588916 40.11069824 75.96801758 40.16772461 C72.91592263 40.42134011 69.86421686 40.67937638 66.8125 40.9375 C65.75740234 41.02451172 64.70230469 41.11152344 63.61523438 41.20117188 C62.08286133 41.33168945 62.08286133 41.33168945 60.51953125 41.46484375 C59.58214111 41.543396 58.64475098 41.62194824 57.67895508 41.70288086 C55.09886228 41.98903532 52.54550192 42.49089962 50 43 C54.29 44.98 58.58 46.96 63 49 C59.06023473 50.31325509 56.85947871 48.94625487 53.1875 47.5 C43.88052655 44.0910107 35.59348371 45.05211539 26 47 C30.93906575 49.00981446 35.87888491 51.01776312 40.81933594 53.02416992 C42.491081 53.70337624 44.16263826 54.383045 45.83398438 55.06323242 C57.5152369 59.81665777 69.23301224 64.46287173 81 69 C77.43364762 70.18878413 76.39620485 69.72013686 72.89453125 68.56640625 C71.91162109 68.24736328 70.92871094 67.92832031 69.91601562 67.59960938 C68.89185547 67.25736328 67.86769531 66.91511719 66.8125 66.5625 C65.25885742 66.05493164 65.25885742 66.05493164 63.67382812 65.53710938 C61.1131766 64.69929252 58.5555198 63.85331644 56 63 C55.67 63.33 55.34 63.66 55 64 C55.56589844 64.48210937 56.13179687 64.96421875 56.71484375 65.4609375 C57.44832031 66.09257812 58.18179688 66.72421875 58.9375 67.375 C59.66839844 68.00148438 60.39929688 68.62796875 61.15234375 69.2734375 C63 71 63 71 64 73 C60.6076144 71.58441193 58.04665725 69.43973915 55.23022461 67.11572266 C44.2947227 58.2587318 31.96164385 53.21993621 19 48 C17.35403987 47.32713299 15.70819386 46.65398673 14.0625 45.98046875 C10.72015071 44.62258005 7.36641759 43.29730239 4 42 C8.30798075 50.45026994 13.78480455 54.2063236 22.1875 58.125 C23.60036963 58.78852355 25.01064151 59.45761317 26.41796875 60.1328125 C27.03438232 60.42043457 27.6507959 60.70805664 28.28588867 61.00439453 C30.18387133 62.10679779 31.51693327 63.39237496 33 65 C31.64451156 64.56661254 30.29068724 64.12802005 28.9375 63.6875 C28.18339844 63.44386719 27.42929687 63.20023437 26.65234375 62.94921875 C23.36532724 61.7728638 20.19907353 60.39788158 17 59 C17.7940625 59.77085937 18.588125 60.54171875 19.40625 61.3359375 C20.43776041 62.34869317 21.46899627 63.36172852 22.5 64.375 C23.02464844 64.88289063 23.54929687 65.39078125 24.08984375 65.9140625 C25.43153181 67.23832604 26.71995815 68.61605865 28 70 C28 70.66 28 71.32 28 72 C24.52224821 70.48446596 22.0442016 68.4226544 19.25 65.875 C18.45078125 65.15054688 17.6515625 64.42609375 16.828125 63.6796875 C16.22484375 63.12539063 15.6215625 62.57109375 15 62 C14.34 63.32 13.68 64.64 13 66 C12.64808594 65.18917969 12.29617188 64.37835938 11.93359375 63.54296875 C8.52224926 55.89193765 4.70508137 48.94625919 0 42 C-2.05710835 54.95454417 -2.05710835 54.95454417 0.71484375 67.2421875 C2.71903474 69.1653655 4.56706364 70.66907201 7 72 C2.75354935 72 0.61475228 70.18249194 -3 68 C-3.65039766 72.71538302 -3.62697663 76.49490665 -2 81 C2.49170434 85.43476151 8.40712991 88.20671764 14 91 C13.01 91.495 13.01 91.495 12 92 C10.30419922 91.37915039 10.30419922 91.37915039 8.3046875 90.34765625 C7.58925781 89.98349609 6.87382812 89.61933594 6.13671875 89.24414062 C5.01716797 88.65922852 5.01716797 88.65922852 3.875 88.0625 C3.12089844 87.67642578 2.36679687 87.29035156 1.58984375 86.89257812 C-0.27709097 85.93547868 -2.13902628 84.96863894 -4 84 C-3.98976807 84.62962646 -3.97953613 85.25925293 -3.96899414 85.90795898 C-3.90520717 90.39826489 -4.09310615 94.5788925 -5 99 C-5.33 99 -5.66 99 -6 99 C-6.33 92.4 -6.66 85.8 -7 79 C-19.76406856 82.21399022 -19.76406856 82.21399022 -27.99609375 91.98828125 C-28.32738281 92.65214844 -28.65867187 93.31601562 -29 94 C-30 92 -30 92 -29.44140625 90.0546875 C-29.00634766 88.97574219 -29.00634766 88.97574219 -28.5625 87.875 C-28.13130859 86.78832031 -28.13130859 86.78832031 -27.69140625 85.6796875 C-27.46324219 85.12539063 -27.23507813 84.57109375 -27 84 C-27.93972656 83.81824219 -27.93972656 83.81824219 -28.8984375 83.6328125 C-29.71570313 83.46523438 -30.53296875 83.29765625 -31.375 83.125 C-32.18710938 82.96257812 -32.99921875 82.80015625 -33.8359375 82.6328125 C-36 82 -36 82 -38 80 C-37.16339844 80.13019531 -36.32679688 80.26039063 -35.46484375 80.39453125 C-26.43989367 81.46393287 -20.4671648 80.351256 -12.08203125 77.12890625 C-9 76 -9 76 -6 76 C-5.67 72.37 -5.34 68.74 -5 65 C-7.97 65.99 -10.94 66.98 -14 68 C-9.25 63.125 -9.25 63.125 -7 62 C-7 55.73 -7 49.46 -7 43 C-19.6432135 46.16080338 -30.43892473 56.55067766 -40 65 C-40.99 64.505 -40.99 64.505 -42 64 C-36.86877855 58.74595676 -31.5930976 53.76008307 -26 49 C-29.34861168 49 -31.35694226 49.76634698 -34.47265625 50.96875 C-35.53677734 51.37480469 -36.60089844 51.78085937 -37.69726562 52.19921875 C-39.36305664 52.84310547 -39.36305664 52.84310547 -41.0625 53.5 C-43.26058855 54.34668998 -45.45975545 55.19058747 -47.66015625 56.03125 C-48.63605713 56.40830078 -49.61195801 56.78535156 -50.61743164 57.17382812 C-53 58 -53 58 -55 58 C-54.69964844 58.62648438 -54.39929688 59.25296875 -54.08984375 59.8984375 C-53.70957031 60.71570313 -53.32929688 61.53296875 -52.9375 62.375 C-52.55464844 63.18710937 -52.17179687 63.99921875 -51.77734375 64.8359375 C-51.52082031 65.55007813 -51.26429688 66.26421875 -51 67 C-51.33 67.66 -51.66 68.32 -52 69 C-52.43570313 68.41089844 -52.87140625 67.82179688 -53.3203125 67.21484375 C-55.10779965 64.9592052 -56.85220869 62.91782577 -59 61 C-62.1154892 60.58857248 -62.1154892 60.58857248 -65 62 C-65.96035156 62.309375 -66.92070312 62.61875 -67.91015625 62.9375 C-72.52887835 66.0205408 -73.55573621 70.08719041 -75.375 75.1875 C-75.72949219 76.12787109 -76.08398438 77.06824219 -76.44921875 78.03710938 C-77.31866355 80.35171243 -78.16787789 82.67177447 -79 85 C-80.31030334 80.73845269 -79.36370213 78.0084797 -78.0625 73.75 C-77.68222656 72.48671875 -77.30195313 71.2234375 -76.91015625 69.921875 C-76.60980469 68.95765625 -76.30945313 67.9934375 -76 67 C-76.92232422 67.34224609 -76.92232422 67.34224609 -77.86328125 67.69140625 C-78.67152344 67.97886719 -79.47976562 68.26632812 -80.3125 68.5625 C-81.11300781 68.85253906 -81.91351563 69.14257812 -82.73828125 69.44140625 C-85 70 -85 70 -88 69 C-78.76 64.71 -69.52 60.42 -60 56 C-61.32 55.01 -62.64 54.02 -64 53 C-64.66 52.34 -65.32 51.68 -66 51 C-65.360625 51.144375 -64.72125 51.28875 -64.0625 51.4375 C-63.051875 51.623125 -62.04125 51.80875 -61 52 C-60.38576172 52.13599609 -59.77152344 52.27199219 -59.13867188 52.41210938 C-52.12977731 53.63980268 -46.92073787 51.65836956 -40.4375 49.0625 C-39.42880859 48.67642578 -38.42011719 48.29035156 -37.38085938 47.89257812 C-34.91339116 46.94535099 -32.45415605 45.98108775 -30 45 C-39.69901794 43.77792374 -49.23978043 43.84103877 -59 44 C-59.75974121 44.00725098 -60.51948242 44.01450195 -61.30224609 44.02197266 C-71.87414316 44.16179376 -81.11165661 46.04570781 -91.13183594 49.38330078 C-93.75858956 50.25041783 -96.40909045 51.03142592 -99.0625 51.8125 C-100.37515324 52.20782485 -101.68772658 52.60341614 -103 53 C-101.58539175 50.1707835 -99.9365103 50.0004437 -97.01171875 48.87109375 C-95.99529297 48.47599609 -94.97886719 48.08089844 -93.93164062 47.67382812 C-92.32579102 47.0618457 -92.32579102 47.0618457 -90.6875 46.4375 C-89.62853516 46.02564453 -88.56957031 45.61378906 -87.47851562 45.18945312 C-80.52633371 42.50607779 -74.70736637 40.86746158 -67.25 40.4375 C-66.55261719 40.39431641 -65.85523438 40.35113281 -65.13671875 40.30664062 C-63.42468078 40.20110404 -61.71236439 40.1001009 -60 40 C-63.3 38.02 -66.6 36.04 -70 34 C-69.34 33.67 -68.68 33.34 -68 33 C-65.84088486 33.87877732 -63.72025497 34.85326892 -61.625 35.875 C-52.7520105 40.18130416 -44.73123579 40.55785981 -35 41 C-34.23171875 41.0407666 -33.4634375 41.0815332 -32.671875 41.12353516 C-30.38546068 41.23622546 -28.10073761 41.31076438 -25.8125 41.375 C-25.10649658 41.41310791 -24.40049316 41.45121582 -23.6730957 41.49047852 C-19.75613262 41.55411915 -18.17648216 41.14303594 -15.09375 38.64453125 C-10.99973562 33.47354666 -10.77352181 28.6406747 -10.734375 22.26953125 C-10.8586048 19.72002443 -10.8586048 19.72002443 -13 17 C-17.69477671 17.54819249 -21.10376705 18.88520079 -25.25 21.125 C-27.13570481 22.14290533 -29.04737919 23.11722831 -31 24 C-31.66 23.67 -32.32 23.34 -33 23 C-32.5467334 22.67837891 -32.0934668 22.35675781 -31.62646484 22.02539062 C-29.5334267 20.52937254 -27.45438625 19.01492939 -25.375 17.5 C-24.66214844 16.9946875 -23.94929688 16.489375 -23.21484375 15.96875 C-18.75761469 12.69738922 -15.49120141 9.41480522 -12.40869141 4.81445312 C-8.82847498 0.20298545 -5.78244099 -0.69788081 0 0 Z " fill="#805C20" transform="translate(255,349)"/>
<path d="M0 0 C8.89365852 7.30279967 14.78082666 16.6616007 17 28 C17.44207193 34.32949049 17.23853424 40.66559079 17 47 C14.90257927 43.85386891 13.98366834 41.14795392 12.8125 37.5625 C6.69179544 19.86538016 -3.95383247 8.32789024 -20.80664062 0.12011719 C-35.85126809 -6.82540571 -51.67696517 -8.50650381 -68 -10 C-68 -10.33 -68 -10.66 -68 -11 C-45.38299688 -15.19569682 -19.46824595 -12.82127275 0 0 Z " fill="#8FC744" transform="translate(213,167)"/>
<path d="M0 0 C3.39762661 3.18673945 6.13983122 6.70403565 8.8125 10.5 C9.23208984 11.06847656 9.65167969 11.63695312 10.08398438 12.22265625 C12.97623915 16.32994391 12.97623915 16.32994391 13.078125 19.203125 C10.73196045 23.11339926 5.84367835 24.85921712 2 27 C2.33 32.94 2.66 38.88 3 45 C-1.5 39.375 -1.5 39.375 -3.359375 36.44921875 C-3.75253906 35.83369141 -4.14570313 35.21816406 -4.55078125 34.58398438 C-5.14439453 33.64522461 -5.14439453 33.64522461 -5.75 32.6875 C-6.16121094 32.04232422 -6.57242188 31.39714844 -6.99609375 30.73242188 C-7.99996311 29.15658043 -9.00034356 27.57851733 -10 26 C-5.43262429 21.29828971 -5.43262429 21.29828971 -3.32763672 19.84692383 C-1.0221852 18.25223448 0.80914412 16.9462254 1.38183594 14.10693359 C1.36657377 11.92393506 1.16878419 9.85029284 0.875 7.6875 C0.76285156 6.57665039 0.76285156 6.57665039 0.6484375 5.44335938 C0.46081183 3.62573571 0.23424512 1.81220539 0 0 Z " fill="#0B0B0B" transform="translate(261,299)"/>
<path d="M0 0 C3.661446 3.46907581 6.51835758 6.95155905 9.3125 11.1875 C10.00988281 12.23292969 10.70726562 13.27835937 11.42578125 14.35546875 C13 17 13 17 13 19 C11.19241118 20.08572705 9.35309149 21.11890235 7.5 22.125 C4.47339709 23.92570656 4.47339709 23.92570656 2 26 C1.30187854 29.49060731 1.34027422 30.70137112 2 34 C2.1797919 35.99886284 2.34607531 37.99897902 2.5 40 C2.6630782 41.66702161 2.82848205 43.3338256 3 45 C-0.21290818 41.12387683 -3.02199524 37.09585427 -5.75 32.875 C-6.16121094 32.25496094 -6.57242188 31.63492187 -6.99609375 30.99609375 C-10 26.35550768 -10 26.35550768 -10 23 C-8.36605835 21.86791186 -6.69196603 20.79337905 -5 19.75 C-1.27992368 16.96256253 -0.13620664 15.79160092 0.6640625 11.140625 C0.73502793 7.39542464 0.43565838 3.71761818 0 0 Z " fill="#0B0B0B" transform="translate(240,300)"/>
<path d="M0 0 C0.33 0 0.66 0 1 0 C0.8865625 0.89460938 0.773125 1.78921875 0.65625 2.7109375 C0.47507714 6.959441 0.62422593 9.95212977 2 14 C6.43520622 18.50883626 12.38057824 21.25047458 18 24 C17.01 24.495 17.01 24.495 16 25 C14.30419922 24.37915039 14.30419922 24.37915039 12.3046875 23.34765625 C11.58925781 22.98349609 10.87382812 22.61933594 10.13671875 22.24414062 C9.39035156 21.85419922 8.64398438 21.46425781 7.875 21.0625 C7.12089844 20.67642578 6.36679687 20.29035156 5.58984375 19.89257812 C3.72290903 18.93547868 1.86097372 17.96863894 0 17 C0.01023193 17.62962646 0.02046387 18.25925293 0.03100586 18.90795898 C0.09479283 23.39826489 -0.09310615 27.5788925 -1 32 C-1.33 32 -1.66 32 -2 32 C-2.495 22.1 -2.495 22.1 -3 12 C-15.76406856 15.21399022 -15.76406856 15.21399022 -23.99609375 24.98828125 C-24.32738281 25.65214844 -24.65867188 26.31601562 -25 27 C-26 25 -26 25 -25.44140625 23.0546875 C-25.15136719 22.33539063 -24.86132812 21.61609375 -24.5625 20.875 C-24.27503906 20.15054687 -23.98757812 19.42609375 -23.69140625 18.6796875 C-23.46324219 18.12539063 -23.23507813 17.57109375 -23 17 C-23.62648437 16.87882812 -24.25296875 16.75765625 -24.8984375 16.6328125 C-25.71570313 16.46523438 -26.53296875 16.29765625 -27.375 16.125 C-28.18710938 15.96257812 -28.99921875 15.80015625 -29.8359375 15.6328125 C-32 15 -32 15 -34 13 C-33.16339844 13.13019531 -32.32679688 13.26039063 -31.46484375 13.39453125 C-22.43989367 14.46393287 -16.4671648 13.351256 -8.08203125 10.12890625 C-5 9 -5 9 -2 9 C-2.04125 8.071875 -2.0825 7.14375 -2.125 6.1875 C-2 3 -2 3 0 0 Z " fill="#88662E" transform="translate(251,416)"/>
<path d="M0 0 C6.61013404 2.0338874 12.84015532 4.87826876 19 8 C19 8.66 19 9.32 19 10 C18.33170166 10.03440186 17.66340332 10.06880371 16.97485352 10.10424805 C2.94802457 10.88037438 -9.72856959 12.38258767 -23 17 C-25.01771294 17.6145073 -27.03809699 18.22040441 -29.0625 18.8125 C-30.37515324 19.20782485 -31.68772658 19.60341614 -33 20 C-31.58539175 17.1707835 -29.9365103 17.0004437 -27.01171875 15.87109375 C-25.99529297 15.47599609 -24.97886719 15.08089844 -23.93164062 14.67382812 C-22.86107422 14.26583984 -21.79050781 13.85785156 -20.6875 13.4375 C-19.62853516 13.02564453 -18.56957031 12.61378906 -17.47851562 12.18945312 C-10.52633371 9.50607779 -4.70736637 7.86746158 2.75 7.4375 C3.44738281 7.39431641 4.14476562 7.35113281 4.86328125 7.30664062 C6.57531922 7.20110404 8.28763561 7.1001009 10 7 C9.278125 6.57847656 8.55625 6.15695312 7.8125 5.72265625 C6.884375 5.17480469 5.95625 4.62695312 5 4.0625 C4.071875 3.51722656 3.14375 2.97195313 2.1875 2.41015625 C1.465625 1.94480469 0.74375 1.47945313 0 1 C0 0.67 0 0.34 0 0 Z " fill="#937441" transform="translate(185,382)"/>
<path d="M0 0 C0 0.33 0 0.66 0 1 C-0.6705542 1.05534912 -1.3411084 1.11069824 -2.03198242 1.16772461 C-5.08407737 1.42134011 -8.13578314 1.67937638 -11.1875 1.9375 C-12.24259766 2.02451172 -13.29769531 2.11152344 -14.38476562 2.20117188 C-15.40634766 2.28818359 -16.42792969 2.37519531 -17.48046875 2.46484375 C-18.41785889 2.543396 -19.35524902 2.62194824 -20.32104492 2.70288086 C-22.90113772 2.98903532 -25.45449808 3.49089962 -28 4 C-21.565 6.97 -21.565 6.97 -15 10 C-19.08000924 11.36000308 -20.72683317 10.08258313 -24.6875 8.5 C-32.99870982 5.40532386 -40.32983613 5.84929494 -49 7 C-49 6.34 -49 5.68 -49 5 C-49.66 4.67 -50.32 4.34 -51 4 C-33.81812326 0.03631268 -17.55931315 -0.48188953 0 0 Z " fill="#947644" transform="translate(333,388)"/>
<path d="M0 0 C0.99 0 1.98 0 3 0 C4.1688491 1.46314861 5.33609028 2.92763375 6.4921875 4.40087891 C9.1528535 7.22266685 12.51203398 8.60118335 16 10.1875 C17.39666652 10.84589169 18.79251999 11.50601125 20.1875 12.16796875 C20.84105469 12.47524902 21.49460937 12.7825293 22.16796875 13.09912109 C24.53320452 14.26219678 26.77184023 15.59434452 29 17 C28.34 17.33 27.68 17.66 27 18 C24.56442428 17.09176973 22.23804483 16.13171929 19.875 15.0625 C19.21628906 14.77181641 18.55757813 14.48113281 17.87890625 14.18164062 C16.24950495 13.46139802 14.62433868 12.73158857 13 12 C13.7940625 12.77085937 14.588125 13.54171875 15.40625 14.3359375 C16.43776041 15.34869317 17.46899627 16.36172852 18.5 17.375 C19.02464844 17.88289063 19.54929687 18.39078125 20.08984375 18.9140625 C21.43153181 20.23832604 22.71995815 21.61605865 24 23 C24 23.66 24 24.32 24 25 C20.52224821 23.48446596 18.0442016 21.4226544 15.25 18.875 C14.05117188 17.78832031 14.05117188 17.78832031 12.828125 16.6796875 C12.22484375 16.12539063 11.6215625 15.57109375 11 15 C10.34 16.32 9.68 17.64 9 19 C8.60167969 18.10796875 8.20335937 17.2159375 7.79296875 16.296875 C7.26316406 15.12640625 6.73335938 13.9559375 6.1875 12.75 C5.66542969 11.58984375 5.14335937 10.4296875 4.60546875 9.234375 C3.25642301 6.51658942 1.82564883 4.39033901 0 2 C0 1.34 0 0.68 0 0 Z " fill="#8B6A34" transform="translate(259,396)"/>
<path d="M0 0 C2 1 2 1 3 3 C1.83984375 3.19335938 1.83984375 3.19335938 0.65625 3.390625 C-4.19847521 4.71245612 -7.67400365 5.84501675 -10.35351562 10.19970703 C-13.07252246 15.94019395 -15.1228551 21.93803521 -17 28 C-18.31030334 23.73845269 -17.36370213 21.0084797 -16.0625 16.75 C-15.68222656 15.48671875 -15.30195313 14.2234375 -14.91015625 12.921875 C-14.60980469 11.95765625 -14.30945313 10.9934375 -14 10 C-14.61488281 10.22816406 -15.22976562 10.45632813 -15.86328125 10.69140625 C-16.67152344 10.97886719 -17.47976562 11.26632812 -18.3125 11.5625 C-19.51326172 11.99755859 -19.51326172 11.99755859 -20.73828125 12.44140625 C-23 13 -23 13 -26 12 C-22.33850369 10.26263025 -18.67233175 8.53560142 -15.00146484 6.81811523 C-13.75273093 6.23209088 -12.50532378 5.64323083 -11.25927734 5.05151367 C-9.47061771 4.20271855 -7.67678122 3.36485953 -5.8828125 2.52734375 C-4.80402832 2.01937256 -3.72524414 1.51140137 -2.61376953 0.98803711 C-1.75122559 0.66198486 -0.88868164 0.33593262 0 0 Z " fill="#8F6E3A" transform="translate(193,406)"/>
<path d="M0 0 C-0.84425537 0.42128174 -0.84425537 0.42128174 -1.70556641 0.85107422 C-17.57770689 8.82434226 -31.29543209 17.69531034 -45 29 C-45 24.8158202 -42.82490141 22.82580335 -40 20 C-37.85172239 18.22583774 -35.59049446 16.69605337 -33.25 15.1875 C-32.60820801 14.76662109 -31.96641602 14.34574219 -31.30517578 13.91210938 C-6.37075148 -2.12358383 -6.37075148 -2.12358383 0 0 Z " fill="#ECF5DF" transform="translate(328,66)"/>
<path d="M0 0 C1.23363281 0.12246094 2.46726563 0.24492187 3.73828125 0.37109375 C18.84681478 1.99273231 18.84681478 1.99273231 24.375 4.75 C24.87 6.235 24.87 6.235 25.375 7.75 C24.22902344 7.47285156 23.08304688 7.19570312 21.90234375 6.91015625 C20.3724356 6.54410461 18.84248543 6.17822853 17.3125 5.8125 C16.56033203 5.63009766 15.80816406 5.44769531 15.03320312 5.25976562 C6.49949333 3.22792996 -1.81177579 2.51884337 -10.5625 2.1875 C-11.62791016 2.14431641 -12.69332031 2.10113281 -13.79101562 2.05664062 C-16.40223443 1.95125511 -19.01353746 1.84912912 -21.625 1.75 C-14.30068546 -2.17373993 -8.07493785 -0.88617267 0 0 Z " fill="#E3F1D1" transform="translate(156.625,157.25)"/>
<path d="M0 0 C0.66 0.33 1.32 0.66 2 1 C0 4 0 4 -3.25 5.125 C-8.29560165 7.06073397 -10.42203442 11.49564256 -13 16 C-14 14 -14 14 -13.44140625 12.0546875 C-13.00634766 10.97574219 -13.00634766 10.97574219 -12.5625 9.875 C-12.27503906 9.15054687 -11.98757812 8.42609375 -11.69140625 7.6796875 C-11.46324219 7.12539063 -11.23507813 6.57109375 -11 6 C-11.62648437 5.87882812 -12.25296875 5.75765625 -12.8984375 5.6328125 C-13.71570313 5.46523438 -14.53296875 5.29765625 -15.375 5.125 C-16.18710938 4.96257812 -16.99921875 4.80015625 -17.8359375 4.6328125 C-20 4 -20 4 -22 2 C-21.0821875 2.10699219 -20.164375 2.21398437 -19.21875 2.32421875 C-11.78635087 3.05028295 -6.77786392 3.12824488 0 0 Z " fill="#8E6E39" transform="translate(239,427)"/>
<path d="M0 0 C-2.7091474 2.7091474 -4.79383118 2.62655107 -8.5625 3.25 C-15.51914569 4.48223674 -21.95237802 6.57306678 -28.53930664 9.10644531 C-30.34135543 9.78780855 -32.16916131 10.40027891 -34 11 C-34.66 10.67 -35.32 10.34 -36 10 C-13.28352455 -0.83456699 -13.28352455 -0.83456699 0 0 Z " fill="#8C6B35" transform="translate(188,391)"/>
<path d="M0 0 C0 0.99 0 1.98 0 3 C-2.01171875 4.9375 -2.01171875 4.9375 -4.6875 7 C-5.55761719 7.680625 -6.42773438 8.36125 -7.32421875 9.0625 C-9.81379964 10.86517463 -12.33867704 12.46554352 -15 14 C-12.56232155 8.51522349 -6.75709363 0 0 0 Z " fill="#F4F9ED" transform="translate(297,81)"/>
<path d="M0 0 C4.63624421 0.40427361 9.00128825 2.40197072 13.3125 4.0625 C14.42334961 4.48499023 14.42334961 4.48499023 15.55664062 4.91601562 C17.37242655 5.60718575 19.18639899 6.30311689 21 7 C17.57469763 8.14176746 16.68326326 7.83108216 13.33203125 6.78515625 C12.43935547 6.51123047 11.54667969 6.23730469 10.62695312 5.95507812 C9.69818359 5.66052734 8.76941406 5.36597656 7.8125 5.0625 C6.87212891 4.77181641 5.93175781 4.48113281 4.96289062 4.18164062 C2.63939029 3.46218113 0.31871482 2.73470814 -2 2 C-1.34 1.34 -0.68 0.68 0 0 Z " fill="#9A7D4E" transform="translate(315,411)"/>
<path d="M0 0 C0.33 0.99 0.66 1.98 1 3 C-0.76330719 4.5088401 -2.53590397 6.0068298 -4.3125 7.5 C-5.29863281 8.3353125 -6.28476563 9.170625 -7.30078125 10.03125 C-10 12 -10 12 -13 12 C-4.738041 3.55353075 -4.738041 3.55353075 0 0 Z " fill="#987B4B" transform="translate(226,401)"/>
<path d="M0 0 C0.98484375 0.10183594 1.9696875 0.20367187 2.984375 0.30859375 C3.73203125 0.39238281 4.4796875 0.47617188 5.25 0.5625 C4.92 1.2225 4.59 1.8825 4.25 2.5625 C-1.69 2.5625 -7.63 2.5625 -13.75 2.5625 C-8.57622978 -0.02438511 -5.73151665 -0.61409107 0 0 Z " fill="#BCDE91" transform="translate(148.75,156.4375)"/>
<path d="M0 0 C-2.81341284 1.87560856 -5.2968416 3.03975986 -8.4375 4.25 C-9.38496094 4.62640625 -10.33242188 5.0028125 -11.30859375 5.390625 C-14 6 -14 6 -16.34765625 5.109375 C-16.89292969 4.74328125 -17.43820312 4.3771875 -18 4 C-12.47339494 0.77614705 -6.33508046 -0.31675402 0 0 Z " fill="#BCDD8F" transform="translate(344,59)"/>
<path d="M0 0 C0.66 0.33 1.32 0.66 2 1 C0.53751886 4.88056075 -1.31854481 6.04133478 -5 7.8125 C-5.886875 8.25207031 -6.77375 8.69164062 -7.6875 9.14453125 C-8.450625 9.42683594 -9.21375 9.70914062 -10 10 C-10.66 9.67 -11.32 9.34 -12 9 C-8.04 6.03 -4.08 3.06 0 0 Z " fill="#8F6F3A" transform="translate(234,363)"/>
<path d="M0 0 C1.41805831 0.28482368 2.83440379 0.57818144 4.25 0.875 C5.03890625 1.03742188 5.8278125 1.19984375 6.640625 1.3671875 C8.96831144 1.99150075 10.89031952 2.84838542 13 4 C12.67 4.99 12.34 5.98 12 7 C8.04 5.02 4.08 3.04 0 1 C0 0.67 0 0.34 0 0 Z " fill="#F3F9EB" transform="translate(181,163)"/>
<path d="M0 0 C5.32697239 1.45281065 8.36402802 5.08111378 12 9 C8.23396179 9 7.22857351 7.92592757 4.3125 5.625 C3.10013672 4.68527344 3.10013672 4.68527344 1.86328125 3.7265625 C1.24839844 3.15679687 0.63351562 2.58703125 0 2 C0 1.34 0 0.68 0 0 Z " fill="#8C6B35" transform="translate(307,412)"/>
<path d="M0 0 C-1.08203125 1.51953125 -1.08203125 1.51953125 -3 3 C-6.13671875 3.07421875 -6.13671875 3.07421875 -9.6875 2.6875 C-10.86699219 2.56761719 -12.04648438 2.44773438 -13.26171875 2.32421875 C-14.16535156 2.21722656 -15.06898438 2.11023438 -16 2 C-16 1.67 -16 1.34 -16 1 C-10.63904667 -0.12862175 -5.44693314 -0.09688221 0 0 Z " fill="#A2D164" transform="translate(161,155)"/>
<path d="M0 0 C5.06998019 0.65419099 9.41990777 2.8546409 14 5 C10.14507389 6.28497537 8.59653164 5.4052209 4.8125 4.0625 C3.72582031 3.68222656 2.63914062 3.30195313 1.51953125 2.91015625 C0.68808594 2.60980469 -0.14335937 2.30945313 -1 2 C-0.67 1.34 -0.34 0.68 0 0 Z " fill="#90703C" transform="translate(304,393)"/>
<path d="M0 0 C-0.33 0.66 -0.66 1.32 -1 2 C-3.32156597 2.40729228 -5.6568787 2.74438677 -8 3 C-8 2.34 -8 1.68 -8 1 C-8.66 0.67 -9.32 0.34 -10 0 C-6.33694766 -0.74926071 -3.57644848 -1.2380014 0 0 Z " fill="#89672F" transform="translate(292,392)"/>
<path d="M0 0 C3.78611227 0.54087318 5.55400767 2.11722332 8 5 C8 5.66 8 6.32 8 7 C4.2047869 5.50902342 2.38957269 3.24299151 0 0 Z " fill="#987A4A" transform="translate(275,414)"/>
</svg>
